<?xml version="1.0" encoding="UTF-8" standalone="no"?>
<!-- Created with Inkscape (http://www.inkscape.org/) -->

<svg
   width="800"
   height="800"
   viewBox="0 0 800 800"
   version="1.1"
   id="svg1"
   sodipodi:docname="masyumi logo.svg"
   inkscape:version="1.3.2 (091e20e, 2023-11-25)"
   xmlns:inkscape="http://www.inkscape.org/namespaces/inkscape"
   xmlns:sodipodi="http://sodipodi.sourceforge.net/DTD/sodipodi-0.dtd"
   xmlns="http://www.w3.org/2000/svg"
   xmlns:svg="http://www.w3.org/2000/svg">
  <sodipodi:namedview
     id="namedview1"
     pagecolor="#ffffff"
     bordercolor="#000000"
     borderopacity="0.25"
     inkscape:showpageshadow="2"
     inkscape:pageopacity="0.0"
     inkscape:pagecheckerboard="0"
     inkscape:deskcolor="#d1d1d1"
     inkscape:document-units="px"
     inkscape:zoom="0.36189586"
     inkscape:cx="207.24194"
     inkscape:cy="396.52291"
     inkscape:window-width="1280"
     inkscape:window-height="582"
     inkscape:window-x="0"
     inkscape:window-y="25"
     inkscape:window-maximized="0"
     inkscape:current-layer="layer1" />
  <defs
     id="defs1" />
  <g
     inkscape:label="Layer 1"
     inkscape:groupmode="layer"
     id="layer1">
    <path
       id="path1"
       style="fill:#000000;fill-rule:evenodd;stroke-width:1.11779"
       d="M 0,0 H 800 V 800 H 0 Z" />
    <path
       id="path2"
       style="fill:#ffffff;fill-rule:evenodd;stroke-width:1.00258"
       d="m 510.9123,156.88093 c 98.5073,43.16039 167.4124,142.02749 167.4124,257.08536 0,154.75462 -124.636,280.25091 -278.32484,280.25091 -153.68839,0 -278.32456,-125.49629 -278.32456,-280.25091 0,-115.05837 68.90664,-213.92587 167.41435,-257.08586 -60.23751,36.25441 -100.39295,101.14063 -100.39295,175.15139 0,113.6251 94.62367,205.76612 211.30316,205.76612 116.68044,0 211.30354,-92.14102 211.30354,-205.76612 0,-74.00976 -40.1541,-138.89658 -100.3911,-175.15089 z m -107.2512,-51.09813 22.2085,64.72599 h 71.8699 l -58.144,40.00168 22.209,64.72649 -58.1434,-40.00259 -58.1431,40.00259 22.20901,-64.72649 -58.14397,-40.00168 h 71.86992 z" />
  </g>
</svg>
